<svg xmlns="http://www.w3.org/2000/svg" viewBox="0 -0.5 27 29" shape-rendering="crispEdges">
<metadata>Made with Pixels to Svg https://codepen.io/shshaw/pen/XbxvNj</metadata>
<path stroke="#47406f" d="M8 2h11M6 3h15M5 4h17M4 5h19M3 6h8M16 6h8M3 7h6M18 7h6M2 8h5M20 8h5M2 9h5M11 9h5M20 9h5M1 10h5M10 10h7M20 10h6M1 11h5M9 11h9M20 11h6M1 12h4M8 12h18M1 13h4M8 13h18M1 14h4M8 14h18M1 15h4M8 15h18M1 16h4M8 16h18M1 17h5M9 17h9M20 17h6M2 18h4M10 18h7M20 18h5M2 19h5M11 19h5M20 19h5M3 20h4M20 20h4M3 21h6M18 21h6M4 22h7M16 22h7M5 23h17M6 24h15M8 25h11M10 26h7" />
<path stroke="#cc723f" d="M11 6h5M9 7h9M7 8h13M7 9h4M16 9h4M6 10h4M17 10h3M6 11h3M18 11h2M5 12h3M5 13h3M5 14h3M5 15h3M5 16h3M6 17h3M18 17h2M6 18h4M17 18h3M7 19h4M16 19h4M7 20h13M9 21h9M11 22h5" />
<path stroke="#2a1f42" d="M1 9h1M25 9h1M0 12h1M26 12h1M0 13h1M26 13h1M0 14h1M26 14h1M0 15h1M26 15h1M0 16h1M26 16h1M0 17h1M26 17h1M0 18h2M25 18h2M1 19h1M25 19h1M1 20h2M24 20h2M1 21h2M24 21h2M2 22h2M23 22h2M3 23h2M22 23h2M3 24h3M21 24h3M4 25h4M19 25h4M6 26h4M17 26h4M7 27h13M10 28h7" />
</svg>