<svg xmlns="http://www.w3.org/2000/svg" viewBox="0 -0.5 27 29" shape-rendering="crispEdges">
<metadata>Made with Pixels to Svg https://codepen.io/shshaw/pen/XbxvNj</metadata>
<path stroke="#47406f" d="M8 0h11M6 1h15M5 2h17M4 3h19M3 4h21M3 5h2M10 5h7M22 5h2M2 6h4M10 6h7M21 6h4M2 7h5M11 7h5M20 7h5M1 8h7M12 8h3M19 8h7M1 9h8M13 9h1M18 9h8M1 10h9M17 10h9M1 11h10M16 11h10M1 12h10M16 12h10M1 13h10M16 13h10M1 14h9M17 14h9M1 15h8M13 15h1M18 15h8M2 16h6M12 16h3M19 16h6M2 17h5M11 17h5M20 17h5M3 18h3M10 18h7M21 18h3M3 19h2M10 19h7M22 19h2M4 20h19M5 21h17M6 22h15M8 23h11M10 24h7" />
<path stroke="#2a1f42" d="M5 5h5M17 5h5M6 6h4M17 6h4M1 7h1M7 7h4M16 7h4M25 7h1M8 8h4M15 8h4M9 9h4M14 9h4M0 10h1M10 10h7M26 10h1M0 11h1M11 11h5M26 11h1M0 12h1M11 12h5M26 12h1M0 13h1M11 13h5M26 13h1M0 14h1M10 14h7M26 14h1M0 15h1M9 15h4M14 15h4M26 15h1M0 16h2M8 16h4M15 16h4M25 16h2M0 17h2M7 17h4M16 17h4M25 17h2M0 18h3M6 18h4M17 18h4M24 18h3M1 19h2M5 19h5M17 19h5M24 19h2M1 20h3M23 20h3M1 21h4M22 21h4M2 22h4M21 22h4M3 23h5M19 23h5M3 24h7M17 24h7M4 25h19M6 26h15M7 27h13M10 28h7" />
</svg>