<svg xmlns="http://www.w3.org/2000/svg" viewBox="0 -0.5 27 29" shape-rendering="crispEdges">
<metadata>Made with Pixels to Svg https://codepen.io/shshaw/pen/XbxvNj</metadata>
<path stroke="#47406f" d="M8 2h11M6 3h15M5 4h17M4 5h19M3 6h21M3 7h2M10 7h7M22 7h2M2 8h4M10 8h7M21 8h4M2 9h5M11 9h5M20 9h5M1 10h7M12 10h3M19 10h7M1 11h8M13 11h1M18 11h8M1 12h9M17 12h9M1 13h10M16 13h10M1 14h10M16 14h10M1 15h10M16 15h10M1 16h9M17 16h9M1 17h8M13 17h1M18 17h8M2 18h6M12 18h3M19 18h6M2 19h5M11 19h5M20 19h5M3 20h3M10 20h7M21 20h3M3 21h2M10 21h7M22 21h2M4 22h19M5 23h17M6 24h15M8 25h11M10 26h7" />
<path stroke="#cc723f" d="M5 7h5M17 7h5M6 8h4M17 8h4M7 9h4M16 9h4M8 10h4M15 10h4M9 11h4M14 11h4M10 12h7M11 13h5M11 14h5M11 15h5M10 16h7M9 17h4M14 17h4M8 18h4M15 18h4M7 19h4M16 19h4M6 20h4M17 20h4M5 21h5M17 21h5" />
<path stroke="#2a1f42" d="M1 9h1M25 9h1M0 12h1M26 12h1M0 13h1M26 13h1M0 14h1M26 14h1M0 15h1M26 15h1M0 16h1M26 16h1M0 17h1M26 17h1M0 18h2M25 18h2M1 19h1M25 19h1M1 20h2M24 20h2M1 21h2M24 21h2M2 22h2M23 22h2M3 23h2M22 23h2M3 24h3M21 24h3M4 25h4M19 25h4M6 26h4M17 26h4M7 27h13M10 28h7" />
</svg>