<svg xmlns="http://www.w3.org/2000/svg" viewBox="0 -0.5 27 29" shape-rendering="crispEdges">
<metadata>Made with Pixels to Svg https://codepen.io/shshaw/pen/XbxvNj</metadata>
<path stroke="#47406f" d="M8 0h11M6 1h15M5 2h17M4 3h19M3 4h8M16 4h8M3 5h6M18 5h6M2 6h5M20 6h5M2 7h5M11 7h5M20 7h5M1 8h5M10 8h7M20 8h6M1 9h5M9 9h9M20 9h6M1 10h4M8 10h18M1 11h4M8 11h18M1 12h4M8 12h18M1 13h4M8 13h18M1 14h4M8 14h18M1 15h5M9 15h9M20 15h6M2 16h4M10 16h7M20 16h5M2 17h5M11 17h5M20 17h5M3 18h4M20 18h4M3 19h6M18 19h6M4 20h7M16 20h7M5 21h17M6 22h15M8 23h11M10 24h7" />
<path stroke="#2a1f42" d="M11 4h5M9 5h9M7 6h13M1 7h1M7 7h4M16 7h4M25 7h1M6 8h4M17 8h3M6 9h3M18 9h2M0 10h1M5 10h3M26 10h1M0 11h1M5 11h3M26 11h1M0 12h1M5 12h3M26 12h1M0 13h1M5 13h3M26 13h1M0 14h1M5 14h3M26 14h1M0 15h1M6 15h3M18 15h2M26 15h1M0 16h2M6 16h4M17 16h3M25 16h2M0 17h2M7 17h4M16 17h4M25 17h2M0 18h3M7 18h13M24 18h3M1 19h2M9 19h9M24 19h2M1 20h3M11 20h5M23 20h3M1 21h4M22 21h4M2 22h4M21 22h4M3 23h5M19 23h5M3 24h7M17 24h7M4 25h19M6 26h15M7 27h13M10 28h7" />
</svg>