<svg xmlns="http://www.w3.org/2000/svg" viewBox="0 -0.5 27 29" shape-rendering="crispEdges">
<metadata>Made with Pixels to Svg https://codepen.io/shshaw/pen/XbxvNj</metadata>
<path stroke="#47406f" d="M8 2h11M6 3h15M5 4h17M4 5h19M3 6h21M3 7h4M20 7h4M2 8h5M20 8h5M2 9h5M9 9h8M20 9h5M1 10h6M8 10h8M20 10h6M1 11h14M19 11h7M1 12h13M18 12h8M1 13h12M17 13h9M1 14h11M16 14h10M1 15h10M15 15h11M1 16h9M14 16h12M1 17h8M13 17h13M2 18h6M12 18h7M20 18h5M2 19h5M11 19h7M20 19h5M3 20h4M20 20h4M3 21h4M20 21h4M4 22h19M5 23h17M6 24h15M8 25h11M10 26h7" />
<path stroke="#cc723f" d="M7 7h13M7 8h13M7 9h2M17 9h3M7 10h1M16 10h4M15 11h4M14 12h4M13 13h4M12 14h4M11 15h4M10 16h4M9 17h4M8 18h4M19 18h1M7 19h4M18 19h2M7 20h13M7 21h13" />
<path stroke="#2a1f42" d="M1 9h1M25 9h1M0 12h1M26 12h1M0 13h1M26 13h1M0 14h1M26 14h1M0 15h1M26 15h1M0 16h1M26 16h1M0 17h1M26 17h1M0 18h2M25 18h2M1 19h1M25 19h1M1 20h2M24 20h2M1 21h2M24 21h2M2 22h2M23 22h2M3 23h2M22 23h2M3 24h3M21 24h3M4 25h4M19 25h4M6 26h4M17 26h4M7 27h13M10 28h7" />
</svg>