<svg xmlns="http://www.w3.org/2000/svg" viewBox="0 -0.5 16 16" shape-rendering="crispEdges">
<metadata>Made with Pixels to Svg https://codepen.io/shshaw/pen/XbxvNj</metadata>
<path stroke="#ff7f27" d="M0 0h16M0 1h1M15 1h1M0 2h1M15 2h1M0 3h1M7 3h2M15 3h1M0 4h1M6 4h4M15 4h1M0 5h1M5 5h6M15 5h1M0 6h1M4 6h8M15 6h1M0 7h1M3 7h10M15 7h1M0 8h1M6 8h4M15 8h1M0 9h1M6 9h4M15 9h1M0 10h1M6 10h4M15 10h1M0 11h1M6 11h4M15 11h1M0 12h1M6 12h4M15 12h1M0 13h1M15 13h1M0 14h1M15 14h1M0 15h16" />
<path stroke="#000000" d="M1 1h14M1 2h14M1 3h6M9 3h6M1 4h5M10 4h5M1 5h4M11 5h4M1 6h3M12 6h3M1 7h2M13 7h2M1 8h5M10 8h5M1 9h5M10 9h5M1 10h5M10 10h5M1 11h5M10 11h5M1 12h5M10 12h5M1 13h14M1 14h14" />
</svg>