<svg xmlns="http://www.w3.org/2000/svg" viewBox="0 -0.5 16 16" shape-rendering="crispEdges">
<metadata>Made with Pixels to Svg https://codepen.io/shshaw/pen/XbxvNj</metadata>
<path stroke="#ff7f27" d="M0 0h16M0 1h1M15 1h1M0 2h1M15 2h1M0 3h1M7 3h1M15 3h1M0 4h1M6 4h2M15 4h1M0 5h1M5 5h3M15 5h1M0 6h1M4 6h9M15 6h1M0 7h1M3 7h10M15 7h1M0 8h1M3 8h10M15 8h1M0 9h1M4 9h9M15 9h1M0 10h1M5 10h3M15 10h1M0 11h1M6 11h2M15 11h1M0 12h1M7 12h1M15 12h1M0 13h1M15 13h1M0 14h1M15 14h1M0 15h16" />
<path stroke="#000000" d="M1 1h14M1 2h14M1 3h6M8 3h7M1 4h5M8 4h7M1 5h4M8 5h7M1 6h3M13 6h2M1 7h2M13 7h2M1 8h2M13 8h2M1 9h3M13 9h2M1 10h4M8 10h7M1 11h5M8 11h7M1 12h6M8 12h7M1 13h14M1 14h14" />
</svg>