<svg xmlns="http://www.w3.org/2000/svg" viewBox="0 -0.5 27 29" shape-rendering="crispEdges">
<metadata>Made with Pixels to Svg https://codepen.io/shshaw/pen/XbxvNj</metadata>
<path stroke="#47406f" d="M8 0h11M6 1h15M5 2h17M4 3h19M3 4h21M3 5h4M20 5h4M2 6h5M20 6h5M2 7h5M9 7h8M20 7h5M1 8h6M8 8h8M20 8h6M1 9h14M19 9h7M1 10h13M18 10h8M1 11h12M17 11h9M1 12h11M16 12h10M1 13h10M15 13h11M1 14h9M14 14h12M1 15h8M13 15h13M2 16h6M12 16h7M20 16h5M2 17h5M11 17h7M20 17h5M3 18h4M20 18h4M3 19h4M20 19h4M4 20h19M5 21h17M6 22h15M8 23h11M10 24h7" />
<path stroke="#2a1f42" d="M7 5h13M7 6h13M1 7h1M7 7h2M17 7h3M25 7h1M7 8h1M16 8h4M15 9h4M0 10h1M14 10h4M26 10h1M0 11h1M13 11h4M26 11h1M0 12h1M12 12h4M26 12h1M0 13h1M11 13h4M26 13h1M0 14h1M10 14h4M26 14h1M0 15h1M9 15h4M26 15h1M0 16h2M8 16h4M19 16h1M25 16h2M0 17h2M7 17h4M18 17h2M25 17h2M0 18h3M7 18h13M24 18h3M1 19h2M7 19h13M24 19h2M1 20h3M23 20h3M1 21h4M22 21h4M2 22h4M21 22h4M3 23h5M19 23h5M3 24h7M17 24h7M4 25h19M6 26h15M7 27h13M10 28h7" />
</svg>